<mxfile host="app.diagrams.net" modified="2021-12-22T08:07:12.171Z" agent="5.0 (Windows NT 10.0; WOW64) AppleWebKit/537.36 (KHTML, like Gecko) Chrome/86.0.4240.198 Safari/537.36" etag="MdBP6ZUjv5p4r68MGV1C" version="16.0.3" type="github">
  <diagram id="FxfufB-tWSqrLGVS9zrJ" name="第 1 页">
    <mxGraphModel dx="1329" dy="805" grid="1" gridSize="10" guides="1" tooltips="1" connect="1" arrows="1" fold="1" page="1" pageScale="1" pageWidth="827" pageHeight="1169" math="0" shadow="0">
      <root>
        <mxCell id="0" />
        <mxCell id="1" parent="0" />
      </root>
    </mxGraphModel>
  </diagram>
</mxfile>
